<?xml version="1.0" standalone="no"?>
<!DOCTYPE svg PUBLIC "-//W3C//DTD SVG 20010904//EN"
 "http://www.w3.org/TR/2001/REC-SVG-20010904/DTD/svg10.dtd">
<svg version="1.0" xmlns="http://www.w3.org/2000/svg"
 width="300.000000pt" height="300.000000pt" viewBox="0 0 300.000000 300.000000"
 preserveAspectRatio="xMidYMid meet">
<metadata>
Created by potrace 1.11, written by Peter Selinger 2001-2013
</metadata>
<g transform="translate(0.000000,300.000000) scale(0.100000,-0.100000)"
fill="#000000" stroke="none">
<path d="M1441 2554 c-38 -32 -43 -90 -11 -119 16 -14 20 -31 20 -76 0 -50 -3
-60 -22 -70 -13 -7 -36 -23 -51 -35 -25 -21 -39 -24 -108 -24 -89 0 -122 -12
-162 -60 -43 -50 -43 -82 -1 -221 20 -68 45 -141 56 -161 35 -71 42 -73 323
-76 224 -2 254 -1 285 15 46 24 70 71 115 225 44 153 40 185 -27 242 -43 37
-70 43 -174 37 -30 -2 -48 4 -70 21 -16 13 -40 31 -53 39 -22 14 -25 22 -22
69 2 35 10 63 22 78 28 36 24 78 -10 113 -36 36 -70 37 -110 3z m309 -484 c11
-11 20 -31 20 -45 0 -14 -9 -34 -20 -45 -19 -19 -33 -20 -255 -20 -222 0 -236
1 -255 20 -11 11 -20 31 -20 45 0 14 9 34 20 45 19 19 33 20 255 20 222 0 236
-1 255 -20z"/>
<path d="M1174 1616 c-42 -18 -82 -63 -95 -106 -7 -22 -26 -47 -53 -67 -70
-52 -156 -202 -156 -272 0 -12 -17 -32 -44 -50 -43 -30 -93 -111 -81 -131 4
-6 26 -10 51 -10 37 0 46 4 55 24 12 25 48 46 77 46 22 -1 46 -19 61 -48 11
-20 19 -23 59 -20 44 3 47 5 44 28 -5 40 -50 99 -87 117 -23 11 -35 24 -35 37
0 32 54 137 89 174 l31 33 42 -35 c39 -34 44 -45 97 -213 l56 -178 209 0 209
0 53 165 c30 91 54 170 54 175 0 6 20 27 44 48 l45 37 40 -46 c34 -39 81 -133
81 -164 0 -5 -19 -21 -42 -37 -43 -29 -96 -112 -83 -132 8 -14 95 -14 95 -1 0
20 53 60 78 60 15 0 37 -13 58 -35 27 -29 40 -35 75 -35 l42 0 -6 35 c-7 41
-34 79 -79 110 -24 17 -35 36 -52 95 -26 90 -81 176 -141 222 -26 19 -49 47
-56 66 -15 45 -57 92 -96 108 -47 20 -594 19 -639 0z"/>
<path d="M1182 824 c-41 -20 -60 -38 -83 -78 -27 -45 -30 -58 -27 -118 3 -55
9 -75 34 -110 16 -24 50 -54 74 -68 45 -25 46 -25 315 -25 298 0 299 0 363 66
94 97 76 250 -40 326 l-41 28 -271 3 -271 3 -53 -27z m590 -80 c57 -29 77
-127 37 -178 -42 -53 -58 -56 -319 -56 -258 0 -281 4 -312 52 -56 86 -8 187
95 198 98 11 470 -1 499 -16z"/>
<path d="M1247 682 c-36 -40 -6 -112 46 -112 29 0 67 39 67 68 0 52 -79 82
-113 44z"/>
<path d="M1447 682 c-25 -27 -22 -78 5 -96 12 -9 30 -16 39 -16 27 0 69 39 69
66 0 54 -78 85 -113 46z"/>
<path d="M1646 678 c-22 -31 -20 -64 4 -88 26 -26 60 -25 88 0 44 41 16 110
-43 110 -24 0 -39 -7 -49 -22z"/>
</g>
</svg>
